<svg width="30" height="24" viewBox="0 0 30 24" fill="none" xmlns="http://www.w3.org/2000/svg">
<path d="M29.5226 2.84684C28.4369 3.32792 27.2706 3.65297 26.0445 3.79989C27.3097 3.0429 28.2561 1.85148 28.7074 0.447947C27.5188 1.15395 26.2179 1.6509 24.8614 1.91719C23.9491 0.943152 22.7408 0.297546 21.424 0.0806033C20.1072 -0.13634 18.7557 0.0875171 17.5792 0.71742C16.4027 1.34732 15.467 2.34803 14.9175 3.56417C14.368 4.78031 14.2354 6.14385 14.5403 7.44309C12.1319 7.32216 9.77581 6.69618 7.625 5.60576C5.47418 4.51535 3.57668 2.98487 2.05564 1.11366C1.53555 2.0108 1.2365 3.05097 1.2365 4.15875C1.23592 5.15601 1.4815 6.13799 1.95146 7.01757C2.42142 7.89715 3.10122 8.64713 3.93054 9.20098C2.96874 9.17037 2.02817 8.91049 1.18709 8.44295V8.52096C1.187 9.91965 1.67082 11.2753 2.55645 12.3579C3.44209 13.4405 4.67501 14.1833 6.04599 14.4603C5.15376 14.7018 4.21833 14.7374 3.31034 14.5644C3.69715 15.7678 4.45062 16.8203 5.46527 17.5742C6.47992 18.3282 7.70495 18.7461 8.96886 18.7692C6.8233 20.4535 4.17353 21.3672 1.44584 21.3632C0.962652 21.3633 0.479877 21.3351 0 21.2786C2.76877 23.0589 5.99182 24.0037 9.28351 24C20.4263 24 26.5178 14.7711 26.5178 6.76698C26.5178 6.50694 26.5113 6.24429 26.4996 5.98425C27.6845 5.12738 28.7073 4.0663 29.52 2.85074L29.5226 2.84684Z" fill="#1DA1F2"/>
</svg>
